<mxfile host="Electron" agent="Mozilla/5.0 (Windows NT 10.0; Win64; x64) AppleWebKit/537.36 (KHTML, like Gecko) draw.io/26.2.2 Chrome/134.0.6998.178 Electron/35.1.2 Safari/537.36" version="26.2.2">
  <diagram name="Page-1" id="c5533yI1ygjBJ6SKRDgS">
    <mxGraphModel dx="788" dy="524" grid="1" gridSize="10" guides="1" tooltips="1" connect="1" arrows="1" fold="1" page="1" pageScale="1" pageWidth="850" pageHeight="1100" math="0" shadow="0">
      <root>
        <mxCell id="0" />
        <mxCell id="1" parent="0" />
        <mxCell id="ktxie8BfdNv_kThh14Yp-2" value="&amp;lt;&amp;lt;Component&amp;gt;&amp;gt;&lt;div&gt;AuthenticationManager&lt;/div&gt;" style="shape=module;align=left;spacingLeft=20;align=center;verticalAlign=top;whiteSpace=wrap;html=1;" parent="1" vertex="1">
          <mxGeometry x="80" y="240" width="160" height="50" as="geometry" />
        </mxCell>
        <mxCell id="ktxie8BfdNv_kThh14Yp-5" value="" style="ellipse;whiteSpace=wrap;html=1;align=center;aspect=fixed;fillColor=none;strokeColor=none;resizable=0;perimeter=centerPerimeter;rotatable=0;allowArrows=0;points=[];outlineConnect=1;" parent="1" vertex="1">
          <mxGeometry x="280" y="260" width="10" height="10" as="geometry" />
        </mxCell>
        <mxCell id="ktxie8BfdNv_kThh14Yp-6" value="UserInterface" style="shape=module;align=left;spacingLeft=20;align=center;verticalAlign=top;whiteSpace=wrap;html=1;" parent="1" vertex="1">
          <mxGeometry x="300" y="241" width="100" height="50" as="geometry" />
        </mxCell>
        <mxCell id="ktxie8BfdNv_kThh14Yp-9" value="" style="rounded=0;orthogonalLoop=1;jettySize=auto;html=1;endArrow=halfCircle;endFill=0;endSize=6;strokeWidth=1;sketch=0;exitX=0.103;exitY=0.487;exitDx=0;exitDy=0;exitPerimeter=0;" parent="1" source="ktxie8BfdNv_kThh14Yp-6" target="ktxie8BfdNv_kThh14Yp-11" edge="1">
          <mxGeometry relative="1" as="geometry">
            <mxPoint x="308" y="265" as="sourcePoint" />
          </mxGeometry>
        </mxCell>
        <mxCell id="ktxie8BfdNv_kThh14Yp-10" value="" style="rounded=0;orthogonalLoop=1;jettySize=auto;html=1;endArrow=oval;endFill=0;sketch=0;sourcePerimeterSpacing=0;targetPerimeterSpacing=0;endSize=10;" parent="1" target="ktxie8BfdNv_kThh14Yp-11" edge="1">
          <mxGeometry relative="1" as="geometry">
            <mxPoint x="240" y="266" as="sourcePoint" />
          </mxGeometry>
        </mxCell>
        <mxCell id="ktxie8BfdNv_kThh14Yp-11" value="" style="ellipse;whiteSpace=wrap;html=1;align=center;aspect=fixed;fillColor=none;strokeColor=none;resizable=0;perimeter=centerPerimeter;rotatable=0;allowArrows=0;points=[];outlineConnect=1;" parent="1" vertex="1">
          <mxGeometry x="255" y="261" width="10" height="10" as="geometry" />
        </mxCell>
        <mxCell id="ktxie8BfdNv_kThh14Yp-12" value="" style="endArrow=open;endSize=12;dashed=1;html=1;rounded=0;exitX=0.75;exitY=0;exitDx=0;exitDy=0;" parent="1" source="ktxie8BfdNv_kThh14Yp-2" edge="1">
          <mxGeometry width="160" relative="1" as="geometry">
            <mxPoint x="210" y="440" as="sourcePoint" />
            <mxPoint x="280" y="160" as="targetPoint" />
            <Array as="points">
              <mxPoint x="200" y="200" />
              <mxPoint x="240" y="200" />
              <mxPoint x="240" y="160" />
            </Array>
          </mxGeometry>
        </mxCell>
        <mxCell id="ktxie8BfdNv_kThh14Yp-13" value="" style="endArrow=open;endSize=12;dashed=1;html=1;rounded=0;exitX=0.75;exitY=1;exitDx=0;exitDy=0;entryX=0;entryY=1;entryDx=10;entryDy=0;entryPerimeter=0;" parent="1" target="ktxie8BfdNv_kThh14Yp-15" edge="1">
          <mxGeometry width="160" relative="1" as="geometry">
            <mxPoint x="140" y="291" as="sourcePoint" />
            <mxPoint x="290" y="430" as="targetPoint" />
            <Array as="points">
              <mxPoint x="140" y="390" />
              <mxPoint x="170" y="390" />
              <mxPoint x="170" y="520" />
              <mxPoint x="230" y="520" />
            </Array>
          </mxGeometry>
        </mxCell>
        <mxCell id="ktxie8BfdNv_kThh14Yp-14" value="&amp;lt;&amp;lt;Component&amp;gt;&amp;gt;&lt;div&gt;UserDB&lt;/div&gt;" style="shape=module;align=left;spacingLeft=20;align=center;verticalAlign=top;whiteSpace=wrap;html=1;" parent="1" vertex="1">
          <mxGeometry x="270" y="110" width="120" height="50" as="geometry" />
        </mxCell>
        <mxCell id="ktxie8BfdNv_kThh14Yp-15" value="&amp;lt;&amp;lt;Component&amp;gt;&amp;gt;&lt;div&gt;UserFactory&lt;/div&gt;" style="shape=module;align=left;spacingLeft=20;align=center;verticalAlign=top;whiteSpace=wrap;html=1;" parent="1" vertex="1">
          <mxGeometry x="310" y="470" width="120" height="50" as="geometry" />
        </mxCell>
        <mxCell id="ktxie8BfdNv_kThh14Yp-17" value="" style="endArrow=open;endSize=12;dashed=1;html=1;rounded=0;exitX=0.75;exitY=1;exitDx=0;exitDy=0;entryX=0;entryY=0;entryDx=0;entryDy=35;entryPerimeter=0;" parent="1" target="ktxie8BfdNv_kThh14Yp-18" edge="1">
          <mxGeometry width="160" relative="1" as="geometry">
            <mxPoint x="220" y="290" as="sourcePoint" />
            <mxPoint x="300" y="370" as="targetPoint" />
            <Array as="points">
              <mxPoint x="220" y="320" />
              <mxPoint x="260" y="320" />
              <mxPoint x="260" y="370" />
              <mxPoint x="290" y="370" />
            </Array>
          </mxGeometry>
        </mxCell>
        <mxCell id="ktxie8BfdNv_kThh14Yp-18" value="&amp;lt;&amp;lt;Component&amp;gt;&amp;gt;&lt;div&gt;NotificationService&lt;/div&gt;" style="shape=module;align=left;spacingLeft=20;align=center;verticalAlign=top;whiteSpace=wrap;html=1;" parent="1" vertex="1">
          <mxGeometry x="305" y="330" width="120" height="50" as="geometry" />
        </mxCell>
        <mxCell id="ktxie8BfdNv_kThh14Yp-21" value="" style="endArrow=none;dashed=1;html=1;rounded=0;exitX=1;exitY=0.5;exitDx=0;exitDy=0;" parent="1" source="ktxie8BfdNv_kThh14Yp-6" edge="1">
          <mxGeometry width="50" height="50" relative="1" as="geometry">
            <mxPoint x="350" y="300" as="sourcePoint" />
            <mxPoint x="480" y="266" as="targetPoint" />
          </mxGeometry>
        </mxCell>
        <mxCell id="ktxie8BfdNv_kThh14Yp-22" value="" style="endArrow=none;dashed=1;html=1;rounded=0;" parent="1" edge="1">
          <mxGeometry width="50" height="50" relative="1" as="geometry">
            <mxPoint x="480" y="181" as="sourcePoint" />
            <mxPoint x="480" y="261" as="targetPoint" />
          </mxGeometry>
        </mxCell>
        <mxCell id="ktxie8BfdNv_kThh14Yp-23" value="" style="endArrow=block;dashed=1;endFill=0;endSize=12;html=1;rounded=0;" parent="1" target="ktxie8BfdNv_kThh14Yp-27" edge="1">
          <mxGeometry width="160" relative="1" as="geometry">
            <mxPoint x="480" y="180" as="sourcePoint" />
            <mxPoint x="600" y="180" as="targetPoint" />
          </mxGeometry>
        </mxCell>
        <mxCell id="ktxie8BfdNv_kThh14Yp-24" value="" style="endArrow=block;dashed=1;endFill=0;endSize=12;html=1;rounded=0;" parent="1" target="ktxie8BfdNv_kThh14Yp-28" edge="1">
          <mxGeometry width="160" relative="1" as="geometry">
            <mxPoint x="480" y="350" as="sourcePoint" />
            <mxPoint x="610" y="350" as="targetPoint" />
          </mxGeometry>
        </mxCell>
        <mxCell id="ktxie8BfdNv_kThh14Yp-25" value="" style="endArrow=none;dashed=1;html=1;rounded=0;" parent="1" edge="1">
          <mxGeometry width="50" height="50" relative="1" as="geometry">
            <mxPoint x="480" y="351" as="sourcePoint" />
            <mxPoint x="480" y="261" as="targetPoint" />
          </mxGeometry>
        </mxCell>
        <mxCell id="ktxie8BfdNv_kThh14Yp-27" value="&amp;lt;&amp;lt;Component&amp;gt;&amp;gt;&lt;div&gt;Candidate&lt;/div&gt;" style="shape=module;align=left;spacingLeft=20;align=center;verticalAlign=top;whiteSpace=wrap;html=1;" parent="1" vertex="1">
          <mxGeometry x="620" y="155" width="120" height="50" as="geometry" />
        </mxCell>
        <mxCell id="ktxie8BfdNv_kThh14Yp-28" value="&amp;lt;&amp;lt;Component&amp;gt;&amp;gt;&lt;div&gt;Employer&lt;/div&gt;" style="shape=module;align=left;spacingLeft=20;align=center;verticalAlign=top;whiteSpace=wrap;html=1;" parent="1" vertex="1">
          <mxGeometry x="620" y="325" width="120" height="50" as="geometry" />
        </mxCell>
        <mxCell id="ktxie8BfdNv_kThh14Yp-29" value="" style="endArrow=none;dashed=1;html=1;rounded=0;" parent="1" edge="1">
          <mxGeometry width="50" height="50" relative="1" as="geometry">
            <mxPoint x="480" y="500" as="sourcePoint" />
            <mxPoint x="480" y="350" as="targetPoint" />
          </mxGeometry>
        </mxCell>
        <mxCell id="ktxie8BfdNv_kThh14Yp-30" value="" style="endArrow=block;dashed=1;endFill=0;endSize=12;html=1;rounded=0;" parent="1" edge="1">
          <mxGeometry width="160" relative="1" as="geometry">
            <mxPoint x="480" y="505" as="sourcePoint" />
            <mxPoint x="610" y="505" as="targetPoint" />
          </mxGeometry>
        </mxCell>
        <mxCell id="ktxie8BfdNv_kThh14Yp-31" value="&amp;lt;&amp;lt;Component&amp;gt;&amp;gt;&lt;div&gt;Admin&lt;br&gt;&lt;div&gt;&lt;br&gt;&lt;/div&gt;&lt;/div&gt;" style="shape=module;align=left;spacingLeft=20;align=center;verticalAlign=top;whiteSpace=wrap;html=1;" parent="1" vertex="1">
          <mxGeometry x="610" y="480" width="120" height="50" as="geometry" />
        </mxCell>
        <mxCell id="ZwB5rgpuM9gGUzpcix8L-1" value="" style="endArrow=open;endSize=12;dashed=1;html=1;rounded=0;exitX=0.5;exitY=0;exitDx=0;exitDy=0;" edge="1" parent="1" source="ktxie8BfdNv_kThh14Yp-2" target="ZwB5rgpuM9gGUzpcix8L-2">
          <mxGeometry width="160" relative="1" as="geometry">
            <mxPoint x="200" y="160" as="sourcePoint" />
            <mxPoint x="280" y="40" as="targetPoint" />
            <Array as="points">
              <mxPoint x="160" y="160" />
              <mxPoint x="160" y="120" />
              <mxPoint x="200" y="120" />
              <mxPoint x="200" y="80" />
              <mxPoint x="200" y="40" />
            </Array>
          </mxGeometry>
        </mxCell>
        <mxCell id="ZwB5rgpuM9gGUzpcix8L-2" value="&amp;lt;&amp;lt;Component&amp;gt;&amp;gt;&lt;div&gt;RoleManager&lt;/div&gt;" style="shape=module;align=left;spacingLeft=20;align=center;verticalAlign=top;whiteSpace=wrap;html=1;" vertex="1" parent="1">
          <mxGeometry x="280" y="15" width="120" height="50" as="geometry" />
        </mxCell>
      </root>
    </mxGraphModel>
  </diagram>
</mxfile>
